<svg version="1.1" xmlns="http://www.w3.org/2000/svg" style="display: block;" viewBox="0 0 2048 1024" width="1774" height="887" preserveAspectRatio="none">
<defs>
	<linearGradient id="Gradient1" gradientUnits="userSpaceOnUse" x1="510.788" y1="683.229" x2="341.555" y2="417.482">
		<stop class="stop0" offset="0" stop-opacity="1" stop-color="rgb(4,153,114)"/>
		<stop class="stop1" offset="1" stop-opacity="1" stop-color="rgb(47,221,157)"/>
	</linearGradient>
</defs>
<path transform="translate(0,0)" fill="url(#Gradient1)" d="M 376.681 389.522 C 392.841 394.761 404.223 402.003 418.377 411.475 C 509.402 412.52 557.86 495.754 533.175 578.852 C 527.504 597.942 518.667 615.671 513.559 634.56 C 510.799 644.769 511.62 660.919 517.53 669.367 C 519.33 671.941 521.202 671.285 522.883 675.895 C 522.375 678.929 522.987 677.915 520.661 679.739 C 513.03 681.162 490.722 680.632 481.79 680.629 L 407.076 680.609 C 393.412 680.612 378.99 681.115 365.432 680.627 C 353.118 680.184 359.935 656.167 361.599 649.747 C 380.263 593.727 444.693 576.076 442.791 509.008 C 417.457 547.44 396.605 520.393 370.574 553.002 C 366.546 558.049 363.224 567.864 359.033 571.524 C 355.827 577.695 340.472 568.834 340.418 568.855 C 321.706 576.235 301.713 549.974 312.964 534.205 C 317.165 524.802 347.996 489.207 349.632 482.088 C 357.244 448.959 362.773 450.17 390.04 427.054 C 386.296 415.046 380.772 402.024 376.681 389.522 z"/>
<path transform="translate(0,0)" fill="rgb(16,174,127)" d="M 371.423 367.923 C 399.553 355.219 430.08 348.693 460.946 348.786 C 501.875 348.827 546.433 364.493 575.615 393.669 C 609.55 418.868 631.388 484.498 625.966 525.463 C 625.433 529.493 624.59 538.227 623.229 541.89 C 622.638 546.142 621.212 552.205 619.902 556.297 C 603.911 606.263 577.92 632.407 533.397 656.466 C 567.77 617.544 579.822 582.579 580.071 531.528 C 577.651 503.152 569.852 479.277 554.768 454.744 C 550.493 447.791 544.294 440.735 539.607 433.546 C 522.249 415.651 513.66 408.524 493.441 394.644 C 487.692 392.459 473.969 384.667 465.878 381.435 C 433.078 368.33 406.091 365.691 371.423 367.923 z"/>
<path transform="translate(0,0)" fill="rgb(43,209,146)" d="M 371.423 367.923 C 399.553 355.219 430.08 348.693 460.946 348.786 C 501.875 348.827 546.433 364.493 575.615 393.669 L 573.755 394.495 C 564.896 385.721 538.874 366.077 526.258 364.806 C 519.855 368.041 518.635 369.424 512.001 366.413 C 511.087 363.626 511.812 361.378 512.397 358.525 C 504.992 355.575 489.623 350.675 481.934 352.605 C 480.055 354.213 479.113 354.501 479.108 357.283 C 479.103 360.49 479.191 362.571 481.358 364.749 C 486.354 369.767 496.901 370.01 503.601 371.25 C 503.842 372.368 504.024 373.207 504.144 373.766 C 502.49 381.013 493.97 386.946 493.881 392.792 L 496.023 394.623 C 500.004 397.367 506.331 396.45 507.013 397.521 C 513.834 408.235 534.339 422.5 540.142 432.433 L 539.607 433.546 C 522.249 415.651 513.66 408.524 493.441 394.644 C 487.692 392.459 473.969 384.667 465.878 381.435 C 433.078 368.33 406.091 365.691 371.423 367.923 z"/>
<path transform="translate(0,0)" fill="rgb(4,140,108)" d="M 580.071 531.528 C 587.752 557.513 569.637 613.541 553.494 634.111 C 554.731 635.365 558.203 636.225 560.051 636.096 C 569.825 635.413 575.237 623.646 581.664 617.653 C 584.512 614.997 587.203 613.879 589.743 611.064 C 604.923 591.036 614.637 568.242 621.403 544.177 C 621.599 543.481 622.694 542.372 623.229 541.89 C 622.638 546.142 621.212 552.205 619.902 556.297 C 603.911 606.263 577.92 632.407 533.397 656.466 C 567.77 617.544 579.822 582.579 580.071 531.528 z"/>
<path transform="translate(0,0)" fill="rgb(249,249,249)" d="M 938.792 480.582 C 958.789 480.58 1016.01 476.867 1030.78 485.375 C 1036.85 488.876 1041.04 494.47 1042.8 501.245 C 1045.22 510.538 1044.55 527.724 1039.4 536.062 C 1034.49 544.006 1025.98 546.576 1017.45 548.658 C 1025.06 559.763 1037.88 574.268 1046.64 585.79 L 1034 585.966 L 1023.93 585.894 C 1014.74 573.707 1004.64 561.254 995.181 549.21 L 957.63 549.392 L 957.645 585.984 L 938.737 585.915 L 938.792 480.582 z"/>
<path transform="translate(0,0)" fill="rgb(0,0,0)" d="M 957.666 497.979 C 974.516 498.062 991.456 497.483 1008.36 497.881 C 1026.06 498.299 1029.35 515.992 1021.68 528.991 C 1012.76 534.524 971.021 532.275 957.611 532.339 L 957.666 497.979 z"/>
<path transform="translate(0,0)" fill="rgb(249,249,249)" d="M 738.03 480.671 C 763.709 480.53 793.451 479.188 818.994 481.718 C 836.888 483.491 843.004 503.747 841.352 519.583 C 838.977 542.356 828.758 548.677 807.25 549.719 L 756.749 549.815 L 756.667 585.906 L 738.016 585.953 L 738.03 480.671 z"/>
<path transform="translate(0,0)" fill="rgb(0,0,0)" d="M 756.773 498.004 C 780.487 498.175 838.338 487.262 819.497 528.713 C 811.016 534.974 769.675 532.384 756.673 532.34 L 756.773 498.004 z"/>
<path transform="translate(0,0)" fill="rgb(16,174,127)" d="M 351.29 693.071 C 361.407 692.465 377.436 692.956 387.929 692.958 L 459.46 692.957 L 504.364 692.932 C 522.307 692.932 532.167 689.158 542.963 705.078 C 543.683 711.507 543.382 716.622 543.169 723.05 L 531.042 723.101 C 466.987 723.21 401.274 723.91 337.338 723.002 C 336.474 707.267 336.316 700.605 351.29 693.071 z"/>
<path transform="translate(0,0)" fill="rgb(249,249,249)" d="M 1192.1 480.464 L 1213.71 480.621 C 1230.91 512.53 1250.08 552.931 1266.17 585.9 L 1245.91 585.994 C 1243.49 580.633 1236.25 565.54 1233.3 561.204 L 1211.75 561.169 L 1172.19 561.2 C 1168.07 569.432 1164.02 577.694 1160.02 585.986 L 1139.19 585.873 C 1157.16 552.786 1175.37 514.463 1192.1 480.464 z"/>
<path transform="translate(0,0)" fill="rgb(0,0,0)" d="M 1202.53 498.698 C 1205.83 501.844 1222.13 537.483 1225.36 544.34 L 1204.15 544.323 L 1180.24 544.348 C 1187.54 529.067 1194.97 513.85 1202.53 498.698 z"/>
<path transform="translate(0,0)" fill="rgb(249,249,249)" d="M 1730.91 479.386 C 1752.62 476.781 1775.75 481.118 1796.18 488.295 L 1788.77 504.41 C 1775.67 499.668 1761.88 497.098 1747.95 496.803 C 1739.34 496.578 1706.59 497.396 1711.9 512.05 C 1720.08 532.23 1779.27 518.167 1791.23 535.591 C 1813.28 567.716 1787.86 585.957 1757.25 587.148 C 1731.1 588.077 1714.78 586.965 1690.78 576.008 L 1698.05 560.266 C 1711.21 566.353 1768.07 578.032 1777.52 564.032 C 1791.46 543.383 1755.58 542.103 1743.4 541.574 C 1727.8 540.896 1695.62 539.006 1694.01 517.698 C 1690.43 488.713 1706.19 482.414 1730.91 479.386 z"/>
<path transform="translate(0,0)" fill="rgb(249,249,249)" d="M 1374.84 480.485 C 1384.89 480.262 1407.51 510.931 1414.91 519.476 C 1426.25 506.334 1437.78 493.361 1449.5 480.563 L 1473.03 480.753 L 1426.66 532.201 C 1441.75 550.03 1458.6 568.371 1474.23 585.893 L 1453.75 585.99 C 1452.67 585.797 1451.59 585.605 1450.51 585.412 C 1438.19 572.486 1426.88 558.718 1414.75 545.574 C 1403.45 556.877 1389.27 573.67 1378.3 585.883 L 1355.54 585.891 C 1370.5 567.977 1387.06 549.872 1402.65 532.444 C 1387.71 514.917 1372.45 497.674 1356.86 480.724 L 1374.84 480.485 z"/>
<path transform="translate(0,0)" fill="rgb(249,249,249)" d="M 1571.92 480.678 L 1590.69 480.538 L 1590.68 585.858 L 1571.85 585.974 L 1571.92 480.678 z"/>
</svg>